<svg version="1.1" xmlns="http://www.w3.org/2000/svg" viewBox="0 0 435.97216796875 342.2221984863281" width="435.97216796875" height="342.2221984863281" class="excalidraw-svg">
  <!-- svg-source:excalidraw -->
  
  <defs>
    <style class="style-fonts">
      
    </style>
    
  </defs>
  <rect x="0" y="0" width="435.97216796875" height="342.2221984863281" fill="#ffffff"></rect><g stroke-linecap="round" transform="translate(12.77777099609375 11.379445943757332) rotate(0 22.916656494140625 22.22222900390625)"><path d="M4.38 9.11 C4.38 9.11, 4.38 9.11, 4.38 9.11 M4.38 9.11 C4.38 9.11, 4.38 9.11, 4.38 9.11 M1.23 24.92 C6.35 18.57, 11.69 11.45, 21.57 1.53 M1.23 24.92 C6.44 18.41, 11.71 12.16, 21.57 1.53 M4.65 33.19 C12.97 21.77, 23.41 11.19, 30.89 3 M4.65 33.19 C13.92 21.72, 24.23 10.59, 30.89 3 M10.03 39.19 C21.33 26.65, 30.46 15.51, 37.58 7.49 M10.03 39.19 C20.04 27.72, 29.6 16.9, 37.58 7.49 M17.38 42.93 C23.61 36.74, 29.21 28.88, 43.62 12.74 M17.38 42.93 C26.42 33.04, 35.03 23.46, 43.62 12.74 M28.01 42.9 C33.25 37.58, 39.11 31.24, 44.41 24.03 M28.01 42.9 C32.63 37.1, 38.01 31.43, 44.41 24.03 M6.38 36.87 C6.38 36.87, 6.38 36.87, 6.38 36.87 M6.38 36.87 C6.38 36.87, 6.38 36.87, 6.38 36.87 M25.96 43.3 C18.8 36.92, 11.91 32.87, 1.06 21.65 M25.96 43.3 C16.62 35.26, 7.09 27.19, 1.06 21.65 M34.99 40.54 C23.75 30.11, 12.77 20.45, 3.29 12.98 M34.99 40.54 C22.8 29.72, 10.17 19.08, 3.29 12.98 M40.23 34.5 C27.34 23.72, 14.32 12.86, 7.78 6.29 M40.23 34.5 C32.73 27.5, 24.48 21.17, 7.78 6.29 M44.73 27.81 C34.61 17.39, 22.36 8.23, 15.29 2.22 M44.73 27.81 C36.67 20.7, 28.65 14.47, 15.29 2.22 M44.69 17.18 C37.03 10.68, 29.14 4.76, 25.83 0.78 M44.69 17.18 C38.59 11.71, 32.11 5.92, 25.83 0.78" stroke="#a5d8ff" stroke-width="1" fill="none"></path><path d="M18.12 0.29 C22.61 -0.9, 29.33 0.77, 33.67 2.99 C38.01 5.22, 42.33 9.18, 44.16 13.62 C45.99 18.06, 46.15 25.07, 44.64 29.63 C43.13 34.19, 39.24 38.47, 35.1 40.98 C30.95 43.49, 24.58 45.4, 19.76 44.68 C14.94 43.97, 9.46 40.33, 6.18 36.7 C2.91 33.07, 0.37 27.56, 0.12 22.9 C-0.13 18.24, 1.47 12.52, 4.7 8.74 C7.93 4.97, 16.77 1.55, 19.51 0.25 C22.25 -1.05, 21.03 0.55, 21.14 0.94 M20.16 -0.18 C24.65 -1.12, 31.39 0.7, 35.4 3.39 C39.42 6.08, 42.88 11.3, 44.23 15.95 C45.58 20.61, 45.34 26.92, 43.51 31.31 C41.68 35.71, 37.45 40.12, 33.26 42.33 C29.08 44.55, 23.06 45.62, 18.4 44.58 C13.74 43.55, 8.31 40.01, 5.32 36.11 C2.32 32.22, 0.29 25.99, 0.44 21.21 C0.59 16.43, 2.87 11.01, 6.23 7.43 C9.59 3.86, 18.23 0.84, 20.59 -0.24 C22.94 -1.32, 20.55 0.48, 20.37 0.96" stroke="#1971c2" stroke-width="2" fill="none"></path></g><g stroke-linecap="round" transform="translate(102.361083984375 10.6944580078125) rotate(0 22.916656494140625 22.22222900390625)"><path d="M26.62 0.61 C31.3 1.05, 37.14 3.76, 40.34 7.4 C43.55 11.05, 45.77 17.68, 45.84 22.49 C45.9 27.3, 43.85 32.58, 40.74 36.26 C37.64 39.94, 32.01 43.75, 27.21 44.58 C22.42 45.42, 16.25 43.7, 11.96 41.27 C7.68 38.85, 3.33 34.38, 1.52 30.01 C-0.3 25.64, -0.59 19.56, 1.06 15.06 C2.71 10.55, 6.94 5.37, 11.42 3 C15.91 0.63, 25.14 1.13, 27.95 0.83 C30.76 0.52, 28.49 0.8, 28.29 1.17 M25.82 0.04 C30.37 0.43, 35.87 3.83, 39.11 7.42 C42.35 11.01, 44.93 16.83, 45.25 21.58 C45.57 26.34, 43.82 32.14, 41.04 35.96 C38.27 39.79, 33.23 43.47, 28.58 44.55 C23.93 45.63, 17.53 44.71, 13.14 42.44 C8.75 40.16, 4.23 35.33, 2.24 30.93 C0.24 26.52, -0.3 20.63, 1.16 16 C2.63 11.37, 6.89 5.75, 11.03 3.17 C15.17 0.58, 23.72 0.89, 26.03 0.5 C28.34 0.11, 24.92 0.5, 24.9 0.83" stroke="#1e1e1e" stroke-width="2" fill="none"></path></g><g stroke-linecap="round" transform="translate(194.0277099609375 11.38885498046875) rotate(0 22.916656494140625 22.22222900390625)"><path d="M21.09 -0.43 C25.75 -1.04, 32.23 1.67, 36.28 4.49 C40.32 7.32, 44.09 11.87, 45.35 16.51 C46.61 21.15, 45.92 28.04, 43.83 32.33 C41.74 36.62, 37.31 40.34, 32.82 42.24 C28.32 44.15, 21.7 44.94, 16.85 43.75 C11.99 42.57, 6.48 39.09, 3.69 35.14 C0.91 31.19, -0.48 24.77, 0.13 20.03 C0.75 15.29, 3.7 10.03, 7.39 6.72 C11.07 3.41, 19.74 1.16, 22.24 0.19 C24.75 -0.78, 22.42 0.54, 22.42 0.9 M19.62 0.51 C24.11 -0.2, 30.72 1.54, 34.9 4.15 C39.07 6.75, 43.08 11.57, 44.67 16.15 C46.27 20.74, 46.29 27.26, 44.49 31.64 C42.69 36.02, 38.28 40.42, 33.89 42.46 C29.49 44.5, 22.97 44.99, 18.12 43.88 C13.26 42.77, 7.65 39.7, 4.74 35.82 C1.83 31.93, 0.33 25.32, 0.63 20.58 C0.93 15.83, 3.39 10.72, 6.52 7.35 C9.66 3.99, 17.07 1.49, 19.44 0.38 C21.81 -0.74, 20.52 0.39, 20.75 0.67" stroke="#1e1e1e" stroke-width="2" fill="none"></path></g><g stroke-linecap="round" transform="translate(285 10) rotate(0 22.916656494140625 22.22222900390625)"><path d="M27.4 0.19 C31.98 0.86, 37.54 4.9, 40.62 8.68 C43.71 12.46, 45.96 18.11, 45.91 22.88 C45.86 27.66, 43.61 33.69, 40.31 37.32 C37.02 40.95, 31.04 44.04, 26.13 44.69 C21.23 45.33, 14.98 43.75, 10.88 41.17 C6.78 38.6, 3.11 33.75, 1.55 29.26 C-0.01 24.76, -0.17 18.63, 1.54 14.22 C3.24 9.8, 7.27 4.92, 11.8 2.74 C16.33 0.57, 25.54 1.36, 28.71 1.18 C31.87 1.01, 30.82 1.45, 30.79 1.7 M19.27 0.12 C23.86 -0.7, 30.53 0.89, 34.86 3.39 C39.2 5.9, 43.75 10.53, 45.26 15.14 C46.77 19.75, 45.9 26.49, 43.94 31.06 C41.97 35.64, 37.75 40.5, 33.46 42.59 C29.16 44.68, 22.87 44.64, 18.15 43.62 C13.44 42.59, 8.22 40.02, 5.17 36.42 C2.12 32.83, -0.31 26.79, -0.13 22.03 C0.06 17.26, 2.87 11.44, 6.28 7.83 C9.7 4.23, 18.18 1.7, 20.36 0.4 C22.53 -0.9, 19.43 -0.23, 19.33 0.01" stroke="#1e1e1e" stroke-width="2" fill="none"></path></g><g stroke-linecap="round" transform="translate(12.0833740234375 107.22219848632812) rotate(0 22.916656494140625 22.22222900390625)"><path d="M22.63 -0.39 C27.33 -0.68, 34.14 2.11, 37.91 5.23 C41.68 8.35, 44.51 13.57, 45.25 18.33 C45.98 23.1, 44.81 29.64, 42.33 33.82 C39.85 38, 34.96 41.86, 30.37 43.41 C25.79 44.96, 19.39 44.75, 14.82 43.12 C10.25 41.49, 5.3 37.73, 2.96 33.62 C0.63 29.51, 0.01 23.2, 0.81 18.46 C1.6 13.71, 3.83 8.2, 7.73 5.15 C11.63 2.09, 21.35 0.93, 24.21 0.11 C27.06 -0.7, 24.86 -0.14, 24.88 0.25 M18.2 0.08 C22.68 -1.11, 30.05 0.52, 34.51 2.86 C38.98 5.2, 43.37 9.57, 44.99 14.13 C46.6 18.69, 45.83 25.57, 44.2 30.21 C42.56 34.86, 39.34 39.58, 35.18 41.99 C31.02 44.41, 24.08 45.63, 19.25 44.69 C14.41 43.75, 9.28 40.15, 6.17 36.33 C3.07 32.51, 0.74 26.41, 0.64 21.79 C0.54 17.16, 2.63 12.27, 5.56 8.58 C8.49 4.9, 15.92 0.99, 18.22 -0.33 C20.51 -1.65, 19.2 0.28, 19.34 0.68" stroke="#1e1e1e" stroke-width="2" fill="none"></path></g><g stroke-linecap="round" transform="translate(101.66668701171875 107.22222900390625) rotate(0 22.916656494140625 22.22222900390625)"><path d="M8.85 5.04 C8.85 5.04, 8.85 5.04, 8.85 5.04 M8.85 5.04 C8.85 5.04, 8.85 5.04, 8.85 5.04 M1.77 25.39 C8.96 16.26, 16.54 7.61, 23.42 0.48 M1.77 25.39 C5.8 20.51, 10.34 15.44, 23.42 0.48 M4.53 34.41 C12.17 26.58, 18.97 19.35, 31.42 3.47 M4.53 34.41 C12.04 26.41, 18.81 17.69, 31.42 3.47 M10.56 39.66 C17.14 32.51, 24.99 24.71, 38.77 7.2 M10.56 39.66 C20.81 27.3, 31.39 15.73, 38.77 7.2 M17.91 43.4 C24.54 37.1, 30.77 30.14, 42.84 14.72 M17.91 43.4 C24.65 35.65, 31.73 27.37, 42.84 14.72 M28.54 43.36 C32.89 39.94, 36.96 35.04, 44.94 24.49 M28.54 43.36 C32.24 39.32, 34.88 35.86, 44.94 24.49 M14.19 43.12 C14.19 43.12, 14.19 43.12, 14.19 43.12 M14.19 43.12 C14.19 43.12, 14.19 43.12, 14.19 43.12 M26.98 43.65 C18.49 35.29, 8.81 29.18, 1.32 21.34 M26.98 43.65 C19.95 37.5, 12.89 31.7, 1.32 21.34 M34.5 39.58 C28.01 32.9, 19.29 28.21, 3.55 12.68 M34.5 39.58 C26.3 32.36, 17.2 24.52, 3.55 12.68 M41.25 34.85 C32.04 26.42, 24.07 18.85, 8.05 5.99 M41.25 34.85 C34.06 28.33, 26.46 22.03, 8.05 5.99 M43.48 26.19 C35.66 19.91, 28.07 13.17, 16.31 2.57 M43.48 26.19 C34.9 19.04, 25.95 11.4, 16.31 2.57 M44.96 16.87 C41.73 14.08, 37.2 9.71, 26.85 1.13 M44.96 16.87 C37.94 11.36, 30.81 5.21, 26.85 1.13" stroke="#a5d8ff" stroke-width="1" fill="none"></path><path d="M24.07 0.04 C28.75 0, 34.56 2.45, 38.08 5.73 C41.6 9.01, 44.55 14.93, 45.19 19.7 C45.83 24.48, 44.51 30.43, 41.92 34.38 C39.34 38.33, 34.29 41.95, 29.65 43.4 C25.02 44.85, 18.57 44.87, 14.14 43.08 C9.71 41.29, 5.44 36.94, 3.1 32.68 C0.75 28.41, -0.94 22.12, 0.06 17.46 C1.06 12.81, 5.02 7.69, 9.11 4.74 C13.21 1.8, 21.8 0.44, 24.63 -0.21 C27.45 -0.86, 26.12 0.35, 26.04 0.83 M27.01 0.3 C31.85 0.76, 37.86 3.77, 40.94 7.49 C44.02 11.21, 45.46 17.69, 45.5 22.6 C45.55 27.52, 44.27 33.31, 41.22 36.98 C38.17 40.65, 32.01 43.9, 27.2 44.61 C22.38 45.32, 16.5 43.77, 12.32 41.23 C8.13 38.68, 3.88 33.69, 2.1 29.37 C0.32 25.05, 0.21 19.8, 1.65 15.3 C3.1 10.8, 6.51 4.9, 10.77 2.38 C15.03 -0.14, 24.6 0.52, 27.22 0.17 C29.85 -0.19, 26.6 -0.09, 26.53 0.23" stroke="#1971c2" stroke-width="2" fill="none"></path></g><g stroke-linecap="round" transform="translate(193.33331298828125 107.9166259765625) rotate(0 22.916656494140625 22.22222900390625)"><path d="M18.26 0.38 C22.67 -0.7, 29.28 0.89, 33.55 3.25 C37.83 5.6, 42.12 10.16, 43.92 14.52 C45.72 18.89, 45.89 24.93, 44.35 29.43 C42.8 33.94, 38.74 39.06, 34.65 41.54 C30.57 44.01, 24.75 45.07, 19.84 44.28 C14.93 43.49, 8.46 40.38, 5.19 36.79 C1.93 33.2, 0.27 27.54, 0.24 22.74 C0.2 17.94, 1.75 11.69, 4.97 7.99 C8.19 4.29, 17.14 1.69, 19.55 0.54 C21.96 -0.62, 19.37 0.79, 19.42 1.06 M21.28 -0.17 C25.78 -0.8, 31.47 1.64, 35.52 4.48 C39.57 7.32, 44.19 12.3, 45.59 16.87 C46.98 21.45, 45.89 27.76, 43.87 31.93 C41.86 36.1, 37.83 40.05, 33.49 41.91 C29.16 43.76, 22.68 44.13, 17.87 43.09 C13.06 42.04, 7.69 39.52, 4.64 35.64 C1.59 31.76, -0.83 24.67, -0.42 19.82 C-0.02 14.98, 3.58 9.92, 7.08 6.55 C10.58 3.18, 18.24 0.66, 20.6 -0.4 C22.95 -1.46, 21.19 -0.32, 21.19 0.19" stroke="#1e1e1e" stroke-width="2" fill="none"></path></g><g stroke-linecap="round" transform="translate(284.30560302734375 106.52777099609375) rotate(0 22.916656494140625 22.22222900390625)"><path d="M23.6 0.19 C28.33 0.14, 34.77 2.54, 38.5 5.77 C42.23 9.01, 45.36 14.78, 45.98 19.59 C46.6 24.4, 44.91 30.65, 42.23 34.64 C39.54 38.62, 34.48 42.13, 29.87 43.51 C25.26 44.88, 19.12 44.67, 14.55 42.88 C9.98 41.09, 4.85 36.98, 2.46 32.75 C0.08 28.53, -0.8 22.16, 0.22 17.52 C1.24 12.89, 4.4 7.84, 8.6 4.94 C12.79 2.04, 22.5 0.88, 25.39 0.11 C28.27 -0.65, 26.08 0.02, 25.92 0.36 M18.78 0.3 C23.51 -0.77, 30.74 0.28, 34.99 2.75 C39.24 5.23, 42.74 10.53, 44.28 15.17 C45.82 19.82, 45.91 26.29, 44.25 30.63 C42.6 34.96, 38.53 38.84, 34.35 41.18 C30.18 43.52, 24.06 45.34, 19.19 44.66 C14.33 43.97, 8.3 40.74, 5.16 37.07 C2.02 33.41, 0.22 27.49, 0.36 22.65 C0.5 17.82, 2.97 11.89, 5.99 8.06 C9.02 4.23, 16.38 1, 18.51 -0.31 C20.64 -1.62, 18.61 -0.17, 18.79 0.2" stroke="#1e1e1e" stroke-width="2" fill="none"></path></g><g stroke-linecap="round" transform="translate(11.388916015625 204.44439697265625) rotate(0 22.916656494140625 22.22222900390625)"><path d="M27.9 0.57 C32.59 1.27, 38.38 4.86, 41.41 8.68 C44.44 12.49, 46.43 18.73, 46.1 23.45 C45.77 28.18, 42.75 33.52, 39.43 37.03 C36.1 40.53, 31.01 43.78, 26.15 44.47 C21.29 45.15, 14.43 43.79, 10.25 41.12 C6.08 38.45, 2.59 33.05, 1.11 28.45 C-0.37 23.85, -0.46 17.81, 1.35 13.54 C3.17 9.26, 7.43 4.86, 12 2.78 C16.57 0.69, 25.87 1.32, 28.79 1.03 C31.71 0.75, 29.66 0.78, 29.52 1.06 M16.93 1.1 C21.37 -0.25, 28.84 0.36, 33.27 2.35 C37.7 4.35, 41.69 8.83, 43.53 13.08 C45.37 17.33, 45.59 23.14, 44.3 27.85 C43.02 32.57, 39.94 38.58, 35.82 41.37 C31.71 44.16, 24.61 45.11, 19.62 44.59 C14.62 44.06, 9.13 41.76, 5.86 38.23 C2.58 34.7, 0.2 28.2, -0.03 23.39 C-0.26 18.58, 1.46 13.2, 4.47 9.38 C7.48 5.57, 15.71 1.92, 18.03 0.49 C20.35 -0.93, 18.28 0.46, 18.4 0.84" stroke="#1e1e1e" stroke-width="2" fill="none"></path></g><g stroke-linecap="round" transform="translate(100.97222900390625 204.44442749023438) rotate(0 22.916656494140625 22.22222900390625)"><path d="M22.94 -0.05 C27.65 -0.36, 34.05 2.26, 37.74 5.25 C41.43 8.24, 44.18 13.19, 45.08 17.87 C45.99 22.55, 45.58 29.1, 43.18 33.32 C40.78 37.54, 35.32 41.63, 30.69 43.2 C26.06 44.78, 20.04 44.41, 15.39 42.78 C10.74 41.14, 5.37 37.39, 2.79 33.41 C0.22 29.43, -0.92 23.53, -0.07 18.9 C0.78 14.27, 4 8.85, 7.91 5.63 C11.82 2.42, 20.71 0.51, 23.39 -0.38 C26.08 -1.28, 24.09 -0.21, 24.02 0.26 M23.98 0.03 C28.69 -0.2, 34.44 2.42, 37.95 5.51 C41.46 8.6, 44.28 13.71, 45.05 18.58 C45.81 23.45, 45.19 30.54, 42.54 34.73 C39.9 38.91, 33.96 42.23, 29.17 43.69 C24.37 45.15, 18.2 45.38, 13.77 43.49 C9.33 41.61, 4.75 36.63, 2.54 32.36 C0.33 28.08, -0.64 22.49, 0.5 17.85 C1.64 13.21, 5.36 7.51, 9.37 4.51 C13.38 1.5, 22.06 0.49, 24.57 -0.18 C27.08 -0.86, 24.68 -0.03, 24.43 0.45" stroke="#1e1e1e" stroke-width="2" fill="none"></path></g><g stroke-linecap="round" transform="translate(192.63885498046875 205.13882446289062) rotate(0 22.916656494140625 22.22222900390625)"><path d="M23.56 0.22 C28.12 -0.03, 33.85 2.06, 37.56 5.18 C41.27 8.29, 45.04 14.13, 45.83 18.9 C46.62 23.68, 44.83 29.83, 42.28 33.81 C39.72 37.79, 35.15 41.3, 30.49 42.8 C25.83 44.31, 19 44.42, 14.34 42.85 C9.68 41.27, 4.86 37.42, 2.52 33.33 C0.19 29.24, -0.63 23.09, 0.33 18.3 C1.3 13.51, 4.4 7.67, 8.31 4.59 C12.21 1.51, 21.07 0.44, 23.76 -0.2 C26.46 -0.84, 24.42 0.4, 24.48 0.73 M26.23 0 C30.76 0.33, 36.41 3.28, 39.72 7.05 C43.03 10.81, 46.07 17.65, 46.1 22.58 C46.14 27.5, 43.18 32.9, 39.95 36.6 C36.72 40.3, 31.45 43.98, 26.73 44.78 C22 45.59, 15.83 43.81, 11.61 41.42 C7.4 39.03, 3.08 34.9, 1.44 30.45 C-0.21 26.01, -0.01 19.33, 1.74 14.74 C3.49 10.15, 7.69 5.32, 11.94 2.91 C16.19 0.49, 24.9 0.57, 27.22 0.28 C29.55 0, 25.97 0.79, 25.91 1.2" stroke="#1e1e1e" stroke-width="2" fill="none"></path></g><g stroke-linecap="round" transform="translate(283.61114501953125 203.74996948242188) rotate(0 22.916656494140625 22.22222900390625)"><path d="M19.71 0.15 C24.4 -0.76, 31.16 0.99, 35.32 3.58 C39.48 6.18, 43.18 11.23, 44.67 15.72 C46.16 20.22, 46.03 26.17, 44.28 30.54 C42.53 34.91, 38.54 39.64, 34.18 41.93 C29.83 44.22, 23.06 45.23, 18.13 44.26 C13.2 43.29, 7.68 39.83, 4.6 36.11 C1.51 32.38, -0.65 26.68, -0.37 21.91 C-0.09 17.13, 2.8 11.13, 6.25 7.45 C9.7 3.78, 17.9 1.05, 20.32 -0.14 C22.73 -1.32, 20.75 -0.03, 20.74 0.33 M22.74 -0.26 C27.4 -0.6, 33.15 2.12, 36.89 5.23 C40.64 8.34, 44.14 13.88, 45.19 18.41 C46.23 22.94, 45.41 28.23, 43.17 32.41 C40.93 36.58, 36.36 41.5, 31.76 43.43 C27.17 45.36, 20.26 45.47, 15.6 43.97 C10.94 42.47, 6.26 38.57, 3.79 34.45 C1.32 30.32, 0.25 24.14, 0.8 19.23 C1.36 14.33, 3.62 8.31, 7.13 5.01 C10.65 1.72, 19.34 0.31, 21.89 -0.55 C24.43 -1.41, 22.38 -0.48, 22.4 -0.14" stroke="#1e1e1e" stroke-width="2" fill="none"></path></g><g stroke-linecap="round" transform="translate(10 287.08331298828125) rotate(0 22.916656494140625 22.22222900390625)"><path d="M22.45 0.42 C27.1 -0.03, 33.32 1.98, 37.18 4.94 C41.03 7.9, 44.6 13.49, 45.6 18.16 C46.61 22.83, 45.59 28.9, 43.21 32.96 C40.83 37.01, 35.87 40.69, 31.33 42.48 C26.79 44.27, 20.61 45.14, 15.97 43.7 C11.34 42.25, 6.08 38, 3.51 33.81 C0.94 29.62, -0.12 23.29, 0.54 18.55 C1.2 13.81, 3.7 8.41, 7.48 5.38 C11.26 2.36, 20.47 1.23, 23.21 0.4 C25.94 -0.43, 23.93 0.16, 23.87 0.38 M25.08 -0.19 C29.66 -0.17, 35.47 2.44, 38.99 5.83 C42.51 9.23, 45.81 15.49, 46.21 20.18 C46.6 24.87, 44.27 30.05, 41.36 33.97 C38.45 37.88, 33.25 42.21, 28.73 43.68 C24.22 45.15, 18.8 44.8, 14.29 42.79 C9.78 40.78, 3.86 36.07, 1.67 31.63 C-0.51 27.18, -0.13 20.65, 1.18 16.09 C2.49 11.52, 5.58 6.85, 9.55 4.23 C13.52 1.61, 22.49 1.08, 25 0.38 C27.5 -0.32, 24.7 -0.24, 24.58 0.04" stroke="#1e1e1e" stroke-width="2" fill="none"></path></g><g stroke-linecap="round" transform="translate(99.58331298828125 287.0833435058594) rotate(0 22.916656494140625 22.22222900390625)"><path d="M20.65 -0.02 C25.2 -0.75, 31.54 1.43, 35.53 4.09 C39.51 6.74, 43.2 11.36, 44.56 15.92 C45.93 20.48, 45.66 27.13, 43.72 31.46 C41.78 35.79, 37.19 39.78, 32.91 41.92 C28.62 44.05, 22.69 45.27, 18.01 44.27 C13.34 43.27, 7.85 39.75, 4.86 35.91 C1.88 32.07, -0.19 26.04, 0.09 21.22 C0.36 16.4, 2.99 10.47, 6.51 7 C10.03 3.53, 18.67 1.52, 21.21 0.38 C23.75 -0.75, 21.79 -0.14, 21.75 0.19 M22.93 -0.46 C27.49 -0.49, 34.28 3.05, 38.1 6.31 C41.92 9.57, 45.14 14.49, 45.87 19.11 C46.6 23.73, 45.15 29.95, 42.47 34.01 C39.78 38.07, 34.36 41.97, 29.78 43.48 C25.19 44.99, 19.58 44.92, 14.97 43.06 C10.36 41.21, 4.43 36.47, 2.13 32.34 C-0.17 28.21, 0 22.93, 1.15 18.26 C2.29 13.6, 5.34 7.42, 9 4.34 C12.66 1.26, 20.54 0.53, 23.08 -0.22 C25.63 -0.97, 24.16 -0.52, 24.29 -0.14" stroke="#1e1e1e" stroke-width="2" fill="none"></path></g><g stroke-linecap="round" transform="translate(191.24993896484375 287.7777404785156) rotate(0 22.916656494140625 22.22222900390625)"><path d="M24.27 -0.42 C29.06 -0.54, 35.37 2.73, 38.99 5.97 C42.61 9.22, 45.5 14.27, 45.97 19.07 C46.45 23.87, 44.55 30.77, 41.84 34.78 C39.13 38.79, 34.4 41.81, 29.72 43.14 C25.03 44.48, 18.26 44.62, 13.74 42.77 C9.22 40.92, 4.82 36.31, 2.6 32.06 C0.37 27.82, -0.74 21.88, 0.4 17.29 C1.54 12.69, 5.25 7.28, 9.44 4.5 C13.63 1.72, 22.59 1.18, 25.55 0.6 C28.51 0.01, 27.23 0.65, 27.19 0.99 M26.29 -0.33 C30.83 -0.05, 36.16 3.24, 39.31 6.77 C42.46 10.3, 44.76 16.1, 45.19 20.82 C45.63 25.54, 44.9 31.35, 41.93 35.08 C38.95 38.82, 32.34 42.16, 27.34 43.23 C22.35 44.3, 16.27 43.56, 11.94 41.5 C7.6 39.44, 3.21 35.19, 1.33 30.88 C-0.54 26.57, -0.7 20.32, 0.7 15.66 C2.09 10.99, 5.54 5.58, 9.72 2.9 C13.9 0.22, 23.02 -0.08, 25.77 -0.43 C28.53 -0.78, 26.38 0.46, 26.27 0.81" stroke="#1e1e1e" stroke-width="2" fill="none"></path></g><g stroke-linecap="round" transform="translate(282.22222900390625 286.3888854980469) rotate(0 22.916656494140625 22.22222900390625)"><path d="M25.17 0.33 C29.83 0.52, 35.61 3.59, 39.05 6.91 C42.49 10.24, 45.3 15.61, 45.82 20.29 C46.33 24.98, 44.99 31.09, 42.15 35.03 C39.32 38.98, 33.67 42.7, 28.81 43.95 C23.95 45.2, 17.48 44.51, 12.98 42.52 C8.48 40.54, 3.77 36.37, 1.8 32.05 C-0.16 27.72, -0.13 21.29, 1.19 16.58 C2.51 11.86, 5.74 6.56, 9.72 3.78 C13.7 1.01, 22.44 0.52, 25.07 -0.07 C27.69 -0.65, 25.45 -0.1, 25.45 0.28 M22.58 0.46 C27.13 0.32, 33.56 2.93, 37.38 5.83 C41.2 8.74, 44.56 13.25, 45.52 17.91 C46.49 22.57, 45.64 29.49, 43.18 33.79 C40.71 38.09, 35.34 42.05, 30.74 43.7 C26.13 45.35, 20.07 45.35, 15.56 43.67 C11.06 42, 6.33 37.94, 3.71 33.64 C1.08 29.33, -0.87 22.68, -0.19 17.86 C0.48 13.04, 3.9 7.8, 7.76 4.72 C11.62 1.65, 20.5 0.24, 22.96 -0.59 C25.42 -1.42, 22.52 -0.83, 22.53 -0.27" stroke="#1e1e1e" stroke-width="2" fill="none"></path></g><g stroke-linecap="round" transform="translate(380.13885498046875 10.6944580078125) rotate(0 22.916656494140625 22.22222900390625)"><path d="M26.19 0.56 C30.9 0.97, 36.92 3.63, 40.24 7.21 C43.55 10.79, 45.89 17.26, 46.08 22.01 C46.27 26.77, 44.44 32.06, 41.37 35.74 C38.31 39.43, 32.64 43.03, 27.71 44.11 C22.78 45.18, 16.12 44.46, 11.78 42.18 C7.44 39.91, 3.35 34.89, 1.66 30.47 C-0.03 26.05, 0.05 20.16, 1.64 15.67 C3.22 11.17, 7.01 5.99, 11.16 3.5 C15.32 1.02, 23.82 1.2, 26.56 0.78 C29.3 0.36, 27.66 0.68, 27.6 0.98 M21.42 0.55 C26.13 0.08, 32.67 2.06, 36.73 4.99 C40.8 7.93, 44.62 13.48, 45.81 18.14 C46.99 22.8, 46.13 28.83, 43.84 32.94 C41.55 37.05, 36.67 41, 32.05 42.79 C27.44 44.58, 20.79 45.19, 16.14 43.67 C11.49 42.16, 6.76 37.71, 4.16 33.7 C1.55 29.69, 0.1 24.22, 0.53 19.6 C0.95 14.99, 3.07 9.28, 6.72 6.02 C10.38 2.77, 19.87 1.07, 22.48 0.08 C25.09 -0.9, 22.32 -0.17, 22.36 0.11" stroke="#1e1e1e" stroke-width="2" fill="none"></path></g><g stroke-linecap="round" transform="translate(379.4444580078125 107.90724745742921) rotate(0 22.916656494140625 22.22222900390625)"><path d="M22.8 0.48 C27.45 0.32, 33.76 2.67, 37.51 5.7 C41.26 8.74, 44.45 13.99, 45.28 18.68 C46.11 23.38, 44.89 29.78, 42.5 33.89 C40.1 37.99, 35.61 41.8, 30.92 43.31 C26.22 44.82, 18.95 44.64, 14.32 42.95 C9.69 41.26, 5.48 37.35, 3.14 33.15 C0.81 28.96, -0.66 22.43, 0.3 17.78 C1.25 13.13, 4.98 8.12, 8.87 5.23 C12.77 2.34, 20.96 1.28, 23.67 0.43 C26.38 -0.41, 25.13 -0.16, 25.14 0.18 M22.55 0.6 C27.21 0.46, 34.38 2.77, 38.22 5.81 C42.05 8.86, 44.68 14.35, 45.56 18.87 C46.43 23.39, 45.8 29.02, 43.44 32.95 C41.09 36.88, 36.09 40.66, 31.43 42.43 C26.77 44.2, 20.27 45.22, 15.46 43.59 C10.66 41.96, 5.03 36.88, 2.6 32.66 C0.17 28.44, -0.02 22.92, 0.89 18.27 C1.8 13.61, 4.34 7.82, 8.09 4.72 C11.83 1.61, 20.94 0.3, 23.36 -0.36 C25.78 -1.02, 22.57 0.25, 22.61 0.78" stroke="#1e1e1e" stroke-width="2" fill="none"></path></g><g stroke-linecap="round" transform="translate(378.75 204.44442749023438) rotate(0 22.916656494140625 22.22222900390625)"><path d="M21.93 -0.23 C26.59 -0.64, 33.59 1.99, 37.45 5.02 C41.3 8.05, 44.11 13.39, 45.06 17.95 C46 22.51, 45.49 28.25, 43.13 32.39 C40.78 36.52, 35.57 40.88, 30.93 42.75 C26.29 44.61, 19.9 45.03, 15.3 43.59 C10.69 42.16, 5.84 38.3, 3.31 34.13 C0.78 29.96, -0.57 23.37, 0.1 18.57 C0.77 13.78, 3.52 8.43, 7.34 5.37 C11.17 2.31, 20.13 1.09, 23.03 0.21 C25.93 -0.68, 24.63 -0.27, 24.76 0.08 M22.41 -0.7 C27.19 -0.81, 34.24 2.62, 37.98 5.85 C41.71 9.09, 44.09 14.01, 44.81 18.72 C45.53 23.43, 44.66 30.08, 42.3 34.12 C39.93 38.16, 35.16 41.4, 30.61 42.96 C26.06 44.52, 19.49 45.1, 14.97 43.47 C10.45 41.84, 5.8 37.38, 3.48 33.15 C1.16 28.92, 0.18 22.76, 1.07 18.09 C1.96 13.42, 5.29 8.08, 8.83 5.14 C12.38 2.2, 19.88 1.21, 22.34 0.47 C24.8 -0.27, 23.36 0.55, 23.59 0.71" stroke="#1e1e1e" stroke-width="2" fill="none"></path></g><g stroke-linecap="round" transform="translate(377.361083984375 287.0833435058594) rotate(0 22.916656494140625 22.22222900390625)"><path d="M19.38 0.32 C24.02 -0.47, 30.79 1.2, 35.02 3.7 C39.25 6.2, 43.23 10.9, 44.77 15.32 C46.32 19.74, 46.12 25.75, 44.29 30.22 C42.46 34.69, 38.15 39.82, 33.8 42.14 C29.46 44.47, 23.01 45.29, 18.21 44.18 C13.42 43.07, 8.03 39.35, 5.02 35.49 C2 31.63, -0.07 25.76, 0.12 21.02 C0.31 16.28, 2.72 10.53, 6.15 7.07 C9.58 3.6, 18.02 1.36, 20.71 0.23 C23.4 -0.9, 22.17 -0.05, 22.3 0.3 M27.75 0.62 C32.38 1.19, 38.18 4.85, 41.22 8.58 C44.27 12.32, 46.2 18.42, 46.04 23.04 C45.88 27.66, 43.47 32.89, 40.26 36.3 C37.04 39.71, 31.64 42.63, 26.75 43.52 C21.87 44.41, 15.2 43.92, 10.93 41.66 C6.66 39.4, 2.76 34.55, 1.14 29.96 C-0.47 25.36, -0.54 18.67, 1.25 14.1 C3.03 9.52, 7.43 4.8, 11.86 2.5 C16.28 0.2, 25.24 0.49, 27.79 0.3 C30.35 0.11, 27.32 0.87, 27.19 1.35" stroke="#1e1e1e" stroke-width="2" fill="none"></path></g><g stroke-linecap="round"><g transform="translate(61.866563535261236 34.41139801314432) rotate(0 19.134083590448373 -0.7893686868885368)"><path d="M-0.05 -0.09 C6.44 -0.31, 32.1 -1.47, 38.52 -1.8 M-0.73 -0.62 C5.73 -0.72, 31.73 -1.02, 38.21 -1.21" stroke="#1e1e1e" stroke-width="2" fill="none"></path></g><g transform="translate(61.866563535261236 34.41139801314432) rotate(0 19.134083590448373 -0.7893686868885368)"><path d="M20.35 5.68 C24.35 4.52, 28.28 2.79, 38.21 -1.21 M20.35 5.68 C24.33 3.74, 27.77 2.62, 38.21 -1.21" stroke="#1e1e1e" stroke-width="2" fill="none"></path></g><g transform="translate(61.866563535261236 34.41139801314432) rotate(0 19.134083590448373 -0.7893686868885368)"><path d="M20.1 -7.42 C24.11 -5.54, 28.09 -4.24, 38.21 -1.21 M20.1 -7.42 C24.15 -6.6, 27.63 -4.95, 38.21 -1.21" stroke="#1e1e1e" stroke-width="2" fill="none"></path></g></g><mask></mask><g stroke-linecap="round"><g transform="translate(151.54481982802773 37.47978876740865) rotate(0 19.139403512742764 -0.5859030851429026)"><path d="M0.55 0.46 C6.85 0.29, 31.59 -0.55, 37.88 -0.89 M0.16 0.22 C6.63 -0.13, 32.61 -1.47, 38.91 -1.71" stroke="#1e1e1e" stroke-width="2" fill="none"></path></g><g transform="translate(151.54481982802773 37.47978876740865) rotate(0 19.139403512742764 -0.5859030851429026)"><path d="M21.24 5.66 C27.51 2.59, 32.68 1.03, 38.91 -1.71 M21.24 5.66 C25.2 3.88, 28.86 2.12, 38.91 -1.71" stroke="#1e1e1e" stroke-width="2" fill="none"></path></g><g transform="translate(151.54481982802773 37.47978876740865) rotate(0 19.139403512742764 -0.5859030851429026)"><path d="M20.63 -7.42 C27.11 -6.44, 32.47 -3.93, 38.91 -1.71 M20.63 -7.42 C24.68 -6.32, 28.47 -5.21, 38.91 -1.71" stroke="#1e1e1e" stroke-width="2" fill="none"></path></g></g><mask></mask><g stroke-linecap="round"><g transform="translate(242.5546066805576 35.526784334681224) rotate(0 19.13940351274276 -0.5859030851429026)"><path d="M0.24 -0.19 C6.63 -0.48, 31.92 -1.44, 38.24 -1.67 M-0.31 -0.77 C6.02 -1.02, 31.44 -1.16, 37.79 -1.23" stroke="#1e1e1e" stroke-width="2" fill="none"></path></g><g transform="translate(242.5546066805576 35.526784334681224) rotate(0 19.13940351274276 -0.5859030851429026)"><path d="M19.85 5.47 C24.55 3.48, 29.06 1.45, 37.79 -1.23 M19.85 5.47 C23.68 3.71, 28.51 2.82, 37.79 -1.23" stroke="#1e1e1e" stroke-width="2" fill="none"></path></g><g transform="translate(242.5546066805576 35.526784334681224) rotate(0 19.13940351274276 -0.5859030851429026)"><path d="M19.74 -7.63 C24.48 -5.94, 29.02 -4.28, 37.79 -1.23 M19.74 -7.63 C23.64 -6.39, 28.5 -4.28, 37.79 -1.23" stroke="#1e1e1e" stroke-width="2" fill="none"></path></g></g><mask></mask><g stroke-linecap="round"><g transform="translate(336.68922122350483 34.354978242035884) rotate(0 19.13940351274276 -0.5859030851429026)"><path d="M0.04 0.52 C6.44 0.33, 32.22 -1.16, 38.65 -1.49 M-0.61 0.31 C5.73 0.21, 31.9 -0.73, 38.41 -0.95" stroke="#1e1e1e" stroke-width="2" fill="none"></path></g><g transform="translate(336.68922122350483 34.354978242035884) rotate(0 19.13940351274276 -0.5859030851429026)"><path d="M20.66 6.22 C27.71 4.39, 32.36 1.88, 38.41 -0.95 M20.66 6.22 C25.23 4.56, 28.86 2.46, 38.41 -0.95" stroke="#1e1e1e" stroke-width="2" fill="none"></path></g><g transform="translate(336.68922122350483 34.354978242035884) rotate(0 19.13940351274276 -0.5859030851429026)"><path d="M20.2 -6.87 C27.37 -4.19, 32.18 -2.19, 38.41 -0.95 M20.2 -6.87 C24.93 -5.33, 28.67 -4.22, 38.41 -0.95" stroke="#1e1e1e" stroke-width="2" fill="none"></path></g></g><mask></mask><g stroke-linecap="round"><g transform="translate(401.88488060678856 57.657924869348534) rotate(0 -0.00004968280580897044 24.62696436791863)"><path d="M-0.1 -0.18 C-0.16 7.93, -0.48 40.68, -0.41 48.84 M-0.81 -0.75 C-0.7 7.4, 0.46 41.02, 0.61 49.33" stroke="#1e1e1e" stroke-width="2" fill="none"></path></g><g transform="translate(401.88488060678856 57.657924869348534) rotate(0 -0.00004968280580897044 24.62696436791863)"><path d="M-8.44 26.42 C-6.1 32.34, -3.89 40.28, 0.61 49.33 M-8.44 26.42 C-6.88 31.11, -4.37 35.95, 0.61 49.33" stroke="#1e1e1e" stroke-width="2" fill="none"></path></g><g transform="translate(401.88488060678856 57.657924869348534) rotate(0 -0.00004968280580897044 24.62696436791863)"><path d="M8.4 25.96 C5.84 32, 3.16 40.07, 0.61 49.33 M8.4 25.96 C6.42 30.71, 5.4 35.65, 0.61 49.33" stroke="#1e1e1e" stroke-width="2" fill="none"></path></g></g><mask></mask><g stroke-linecap="round"><g transform="translate(402.67025507502365 152.21962712340647) rotate(0 -0.000049459323946621225 24.28445513683458)"><path d="M-0.47 0.2 C-0.38 8.32, 0.2 40.73, 0.34 48.75 M0.29 -0.17 C0.35 7.78, 0.1 39.72, 0.09 47.87" stroke="#1e1e1e" stroke-width="2" fill="none"></path></g><g transform="translate(402.67025507502365 152.21962712340647) rotate(0 -0.000049459323946621225 24.28445513683458)"><path d="M-8.11 25.01 C-5.53 31.85, -3.36 38.07, 0.09 47.87 M-8.11 25.01 C-5.58 30.71, -4.1 36.46, 0.09 47.87" stroke="#1e1e1e" stroke-width="2" fill="none"></path></g><g transform="translate(402.67025507502365 152.21962712340647) rotate(0 -0.000049459323946621225 24.28445513683458)"><path d="M8.5 25.09 C6.6 31.83, 4.28 38.04, 0.09 47.87 M8.5 25.09 C6.91 30.75, 4.27 36.48, 0.09 47.87" stroke="#1e1e1e" stroke-width="2" fill="none"></path></g></g><mask></mask><g stroke-linecap="round"><g transform="translate(403.3553357633339 258.39527773404745) rotate(0 -0.5919361818785376 11.482997503518288)"><path d="M-0.1 0.45 C-0.27 4.26, -0.71 18.88, -0.92 22.61 M-0.81 0.2 C-1.04 4.09, -1.05 19.26, -1.22 23.12" stroke="#1e1e1e" stroke-width="2" fill="none"></path></g><g transform="translate(403.3553357633339 258.39527773404745) rotate(0 -0.5919361818785376 11.482997503518288)"><path d="M-4.93 12.24 C-3.29 16.01, -2.95 19.02, -1.22 23.12 M-4.93 12.24 C-3.62 15.2, -2.72 18.58, -1.22 23.12" stroke="#1e1e1e" stroke-width="2" fill="none"></path></g><g transform="translate(403.3553357633339 258.39527773404745) rotate(0 -0.5919361818785376 11.482997503518288)"><path d="M2.93 12.4 C2.05 16.11, -0.13 19.07, -1.22 23.12 M2.93 12.4 C2.05 15.3, 0.76 18.64, -1.22 23.12" stroke="#1e1e1e" stroke-width="2" fill="none"></path></g></g><mask></mask><g stroke-linecap="round"><g transform="translate(371.74457271866197 308.369799897347) rotate(0 -18.837647752571883 0.34247915152184305)"><path d="M0.24 -0.3 C-6.13 -0.15, -31.58 0.39, -37.85 0.55 M-0.3 0.74 C-6.79 0.99, -32.16 1.1, -38.37 1.18" stroke="#1e1e1e" stroke-width="2" fill="none"></path></g><g transform="translate(371.74457271866197 308.369799897347) rotate(0 -18.837647752571883 0.34247915152184305)"><path d="M-20.72 -5.42 C-27.79 -3.23, -34.06 0.06, -38.37 1.18 M-20.72 -5.42 C-26.28 -3.34, -31.22 -1.88, -38.37 1.18" stroke="#1e1e1e" stroke-width="2" fill="none"></path></g><g transform="translate(371.74457271866197 308.369799897347) rotate(0 -18.837647752571883 0.34247915152184305)"><path d="M-20.61 7.47 C-27.69 4.88, -33.99 3.39, -38.37 1.18 M-20.61 7.47 C-26.24 5.78, -31.22 3.48, -38.37 1.18" stroke="#1e1e1e" stroke-width="2" fill="none"></path></g></g><mask></mask><g stroke-linecap="round"><g transform="translate(275.0443364506252 309.98547938887714) rotate(0 -18.837647752571883 0.34247915152184305)"><path d="M0.48 -0.47 C-5.78 -0.26, -31.4 0.98, -37.71 1.17 M0.06 0.47 C-6.27 0.55, -31.88 0.32, -38.16 0.46" stroke="#1e1e1e" stroke-width="2" fill="none"></path></g><g transform="translate(275.0443364506252 309.98547938887714) rotate(0 -18.837647752571883 0.34247915152184305)"><path d="M-20.48 -6.06 C-26.13 -4.26, -29.32 -1.94, -38.16 0.46 M-20.48 -6.06 C-25.78 -4.29, -31.51 -2.58, -38.16 0.46" stroke="#1e1e1e" stroke-width="2" fill="none"></path></g><g transform="translate(275.0443364506252 309.98547938887714) rotate(0 -18.837647752571883 0.34247915152184305)"><path d="M-20.43 6.82 C-26.08 5.1, -29.28 3.9, -38.16 0.46 M-20.43 6.82 C-25.74 4.69, -31.48 2.52, -38.16 0.46" stroke="#1e1e1e" stroke-width="2" fill="none"></path></g></g><mask></mask><g stroke-linecap="round"><g transform="translate(189.41871551493156 309.30046093535424) rotate(0 -18.837647752571883 0.34247915152184305)"><path d="M-0.54 0.4 C-6.79 0.52, -31.66 0.9, -37.91 0.94 M0.19 0.13 C-6.12 0.07, -32.01 -0.07, -38.46 0.1" stroke="#1e1e1e" stroke-width="2" fill="none"></path></g><g transform="translate(189.41871551493156 309.30046093535424) rotate(0 -18.837647752571883 0.34247915152184305)"><path d="M-20.81 -6.49 C-24.1 -5.48, -28.35 -4.14, -38.46 0.1 M-20.81 -6.49 C-26.35 -4.54, -31.19 -2.57, -38.46 0.1" stroke="#1e1e1e" stroke-width="2" fill="none"></path></g><g transform="translate(189.41871551493156 309.30046093535424) rotate(0 -18.837647752571883 0.34247915152184305)"><path d="M-20.7 6.4 C-24.05 4.49, -28.31 2.92, -38.46 0.1 M-20.7 6.4 C-26.24 4.65, -31.11 2.91, -38.46 0.1" stroke="#1e1e1e" stroke-width="2" fill="none"></path></g></g><mask></mask><g stroke-linecap="round"><g transform="translate(96.94303045505666 307.93048423383254) rotate(0 -18.837647752571886 0.34247915152184305)"><path d="M-0.43 -0.07 C-6.66 0.01, -30.88 0.79, -37.16 0.91 M0.35 -0.59 C-5.93 -0.7, -31.1 -0.24, -37.33 0.06" stroke="#1e1e1e" stroke-width="2" fill="none"></path></g><g transform="translate(96.94303045505666 307.93048423383254) rotate(0 -18.837647752571886 0.34247915152184305)"><path d="M-19.82 -6.91 C-25.94 -3.7, -31.46 -2.9, -37.33 0.06 M-19.82 -6.91 C-24.88 -4.88, -29.62 -2.9, -37.33 0.06" stroke="#1e1e1e" stroke-width="2" fill="none"></path></g><g transform="translate(96.94303045505666 307.93048423383254) rotate(0 -18.837647752571886 0.34247915152184305)"><path d="M-19.44 5.97 C-25.74 4.75, -31.38 1.12, -37.33 0.06 M-19.44 5.97 C-24.66 4.3, -29.51 2.59, -37.33 0.06" stroke="#1e1e1e" stroke-width="2" fill="none"></path></g></g><mask></mask><g stroke-linecap="round"><g transform="translate(32.66705837484821 281.65456205602055) rotate(0 -0.3187030648803102 -15.935545407751448)"><path d="M0.44 0.23 C0.21 -5.08, -0.87 -26.72, -1.14 -32.08 M0 -0.13 C-0.08 -5.34, -0.14 -26.28, -0.16 -31.48" stroke="#1e1e1e" stroke-width="2" fill="none"></path></g><g transform="translate(32.66705837484821 281.65456205602055) rotate(0 -0.3187030648803102 -15.935545407751448)"><path d="M5.34 -16.52 C3.85 -22.25, 1.38 -27.3, -0.16 -31.48 M5.34 -16.52 C3.32 -20.91, 1.97 -25.2, -0.16 -31.48" stroke="#1e1e1e" stroke-width="2" fill="none"></path></g><g transform="translate(32.66705837484821 281.65456205602055) rotate(0 -0.3187030648803102 -15.935545407751448)"><path d="M-5.56 -16.49 C-3.38 -22.27, -2.19 -27.33, -0.16 -31.48 M-5.56 -16.49 C-4.4 -20.9, -2.57 -25.2, -0.16 -31.48" stroke="#1e1e1e" stroke-width="2" fill="none"></path></g></g><mask></mask><g stroke-linecap="round"><g transform="translate(35.0713492623879 194.82819639277417) rotate(0 -0.3187030648803102 -15.935545407751448)"><path d="M0.5 0.54 C0.42 -4.85, -0.62 -27.09, -0.85 -32.41 M0.09 0.34 C-0.05 -4.99, -1.15 -26.56, -1.4 -31.99" stroke="#1e1e1e" stroke-width="2" fill="none"></path></g><g transform="translate(35.0713492623879 194.82819639277417) rotate(0 -0.3187030648803102 -15.935545407751448)"><path d="M4.77 -17.3 C4.13 -21, 1.13 -24.5, -1.4 -31.99 M4.77 -17.3 C2.44 -22.95, 0.39 -28.91, -1.4 -31.99" stroke="#1e1e1e" stroke-width="2" fill="none"></path></g><g transform="translate(35.0713492623879 194.82819639277417) rotate(0 -0.3187030648803102 -15.935545407751448)"><path d="M-6.12 -16.77 C-4.22 -20.64, -4.69 -24.27, -1.4 -31.99 M-6.12 -16.77 C-4.28 -22.66, -2.14 -28.82, -1.4 -31.99" stroke="#1e1e1e" stroke-width="2" fill="none"></path></g></g><mask></mask><g stroke-linecap="round"><g transform="translate(152.54289322558301 130.26849588385335) rotate(0 16.440193285574935 -0.6849917478219467)"><path d="M-0.14 -0.51 C5.34 -0.62, 27.87 -0.86, 33.4 -1.02 M0.79 0.42 C6.2 0.19, 27.91 -1.59, 33.24 -1.81" stroke="#1e1e1e" stroke-width="2" fill="none"></path></g><g transform="translate(152.54289322558301 130.26849588385335) rotate(0 16.440193285574935 -0.6849917478219467)"><path d="M18.17 4.8 C23.35 3.01, 30.55 -0.12, 33.24 -1.81 M18.17 4.8 C22.29 2.58, 26.57 1.28, 33.24 -1.81" stroke="#1e1e1e" stroke-width="2" fill="none"></path></g><g transform="translate(152.54289322558301 130.26849588385335) rotate(0 16.440193285574935 -0.6849917478219467)"><path d="M17.45 -6.44 C22.88 -3.82, 30.36 -2.53, 33.24 -1.81 M17.45 -6.44 C21.73 -5.44, 26.22 -3.54, 33.24 -1.81" stroke="#1e1e1e" stroke-width="2" fill="none"></path></g></g><mask></mask><g stroke-linecap="round"><g transform="translate(247.5658931973974 130.9615284747908) rotate(0 16.440193285574935 -0.6849917478219538)"><path d="M-0.5 -0.53 C4.99 -0.79, 27.53 -1.5, 33.18 -1.63 M0.24 0.38 C5.67 0.21, 27.39 -0.88, 32.91 -1.07" stroke="#1e1e1e" stroke-width="2" fill="none"></path></g><g transform="translate(247.5658931973974 130.9615284747908) rotate(0 16.440193285574935 -0.6849917478219538)"><path d="M17.7 5.22 C22.01 3.63, 27.53 1.84, 32.91 -1.07 M17.7 5.22 C22.36 3.09, 26.92 1.69, 32.91 -1.07" stroke="#1e1e1e" stroke-width="2" fill="none"></path></g><g transform="translate(247.5658931973974 130.9615284747908) rotate(0 16.440193285574935 -0.6849917478219538)"><path d="M17.22 -6.03 C21.68 -3.84, 27.35 -1.85, 32.91 -1.07 M17.22 -6.03 C22.08 -4.75, 26.79 -2.75, 32.91 -1.07" stroke="#1e1e1e" stroke-width="2" fill="none"></path></g></g><mask></mask><g stroke-linecap="round"><g transform="translate(306.73149781739863 153.24689897531138) rotate(0 -0.000049459323946621225 24.28445513683458)"><path d="M0.31 -0.41 C0.32 7.69, 0.33 40.16, 0.27 48.31 M-0.2 0.57 C-0.26 8.76, 0.01 40.79, -0.02 48.88" stroke="#1e1e1e" stroke-width="2" fill="none"></path></g><g transform="translate(306.73149781739863 153.24689897531138) rotate(0 -0.000049459323946621225 24.28445513683458)"><path d="M-8.39 26.09 C-6.34 34.35, -3.19 41.63, -0.02 48.88 M-8.39 26.09 C-5.85 32.39, -3.82 39.78, -0.02 48.88" stroke="#1e1e1e" stroke-width="2" fill="none"></path></g><g transform="translate(306.73149781739863 153.24689897531138) rotate(0 -0.000049459323946621225 24.28445513683458)"><path d="M8.22 26.04 C4.59 34.37, 2.06 41.66, -0.02 48.88 M8.22 26.04 C5.92 32.38, 3.09 39.78, -0.02 48.88" stroke="#1e1e1e" stroke-width="2" fill="none"></path></g></g><mask></mask><g stroke-linecap="round"><g transform="translate(276.5289182706216 222.05915868566814) rotate(0 -17.12517200094902 0.6849900224501067)"><path d="M-0.21 -0.04 C-5.82 0.18, -28.31 0.83, -33.94 1.02 M0.69 -0.53 C-4.95 -0.22, -28.4 1.19, -34.22 1.55" stroke="#1e1e1e" stroke-width="2" fill="none"></path></g><g transform="translate(276.5289182706216 222.05915868566814) rotate(0 -17.12517200094902 0.6849900224501067)"><path d="M-18.5 -5.28 C-22.51 -3.13, -26.92 -1.5, -34.22 1.55 M-18.5 -5.28 C-22.38 -3.83, -26.34 -1.97, -34.22 1.55" stroke="#1e1e1e" stroke-width="2" fill="none"></path></g><g transform="translate(276.5289182706216 222.05915868566814) rotate(0 -17.12517200094902 0.6849900224501067)"><path d="M-17.79 6.42 C-21.94 5.65, -26.53 4.35, -34.22 1.55 M-17.79 6.42 C-21.85 4.86, -25.99 3.71, -34.22 1.55" stroke="#1e1e1e" stroke-width="2" fill="none"></path></g></g><mask></mask><g stroke-linecap="round"><g transform="translate(183.00791505757007 226.34773035744945) rotate(0 -17.12517200094902 0.6849900224501067)"><path d="M0.01 -0.32 C-5.57 -0.13, -28 1.24, -33.77 1.43 M-0.65 0.7 C-6.23 0.96, -28.49 2.08, -33.95 2.16" stroke="#1e1e1e" stroke-width="2" fill="none"></path></g><g transform="translate(183.00791505757007 226.34773035744945) rotate(0 -17.12517200094902 0.6849900224501067)"><path d="M-18.06 -4.26 C-22.42 -1.95, -25.7 -1.66, -33.95 2.16 M-18.06 -4.26 C-21.14 -3.03, -24.42 -2.09, -33.95 2.16" stroke="#1e1e1e" stroke-width="2" fill="none"></path></g><g transform="translate(183.00791505757007 226.34773035744945) rotate(0 -17.12517200094902 0.6849900224501067)"><path d="M-17.66 7.46 C-22.14 6.91, -25.52 4.35, -33.95 2.16 M-17.66 7.46 C-20.86 6.32, -24.22 4.9, -33.95 2.16" stroke="#1e1e1e" stroke-width="2" fill="none"></path></g></g><mask></mask><g stroke-linecap="round"><g transform="translate(66.23228879212769 127.52841986401401) rotate(0 14.727633772957834 0.3425094115805223)"><path d="M-0.02 -0.54 C4.89 -0.34, 24.87 0.51, 29.81 0.74 M-0.69 0.37 C4.14 0.71, 24.55 1.28, 29.57 1.47" stroke="#1e1e1e" stroke-width="2" fill="none"></path></g><g transform="translate(66.23228879212769 127.52841986401401) rotate(0 14.727633772957834 0.3425094115805223)"><path d="M15.57 6.05 C20.09 4.82, 26.12 2.9, 29.57 1.47 M15.57 6.05 C19.85 4.46, 24.42 3.19, 29.57 1.47" stroke="#1e1e1e" stroke-width="2" fill="none"></path></g><g transform="translate(66.23228879212769 127.52841986401401) rotate(0 14.727633772957834 0.3425094115805223)"><path d="M15.9 -4.02 C20.26 -1.48, 26.16 0.36, 29.57 1.47 M15.9 -4.02 C20.08 -2.33, 24.54 -0.32, 29.57 1.47" stroke="#1e1e1e" stroke-width="2" fill="none"></path></g></g><mask></mask></svg>